<svg xmlns="http://www.w3.org/2000/svg" width="500" height="360" viewBox="0 0 500 360">
  <rect width="500" height="360" rx="12" fill="#1C1C28"/>
  <rect x="0" y="0" width="60" height="360" rx="12" fill="#2A2A3C"/>
  <circle cx="30" cy="30" r="12" fill="#FF6B6B"/>
  <circle cx="30" cy="65" r="12" fill="#845EF7"/>
  <circle cx="30" cy="100" r="12" fill="#22B8CF"/>
  <circle cx="30" cy="135" r="12" fill="#51CF66"/>
  <circle cx="30" cy="170" r="12" fill="#FF922B"/>
  <rect x="10" y="200" width="40" height="4" rx="2" fill="#4A4A5C"/>
  <rect x="10" y="214" width="40" height="4" rx="2" fill="#4A4A5C"/>
  <rect x="10" y="228" width="40" height="4" rx="2" fill="#4A4A5C"/>
  <rect x="80" y="20" width="400" height="36" rx="18" fill="#2A2A3C"/>
  <text x="280" y="44" text-anchor="middle" fill="#8B8B9E" font-family="system-ui" font-size="14">Search or enter URL...</text>
  <rect x="80" y="76" width="400" height="264" rx="8" fill="#FFFFFF"/>
  <rect x="100" y="96" width="200" height="16" rx="4" fill="#1C1C28"/>
  <rect x="100" y="126" width="340" height="8" rx="4" fill="#E0E0E0"/>
  <rect x="100" y="146" width="300" height="8" rx="4" fill="#E0E0E0"/>
  <rect x="100" y="166" width="320" height="8" rx="4" fill="#E0E0E0"/>
  <rect x="100" y="200" width="170" height="120" rx="8" fill="#845EF7" opacity="0.15"/>
  <rect x="290" y="200" width="170" height="120" rx="8" fill="#22B8CF" opacity="0.15"/>
</svg>
