<svg xmlns="http://www.w3.org/2000/svg" width="500" height="340" viewBox="0 0 500 340">
  <rect width="500" height="340" rx="12" fill="#12131A"/>
  <rect x="0" y="0" width="56" height="340" fill="#1A1B25"/>
  <rect x="16" y="16" width="24" height="24" rx="6" fill="#5E6AD2"/>
  <rect x="16" y="56" width="24" height="4" rx="2" fill="#5E6AD2"/>
  <rect x="16" y="70" width="24" height="4" rx="2" fill="#3B3D54"/>
  <rect x="16" y="84" width="24" height="4" rx="2" fill="#3B3D54"/>
  <rect x="16" y="98" width="24" height="4" rx="2" fill="#3B3D54"/>
  <rect x="76" y="20" width="120" height="12" rx="4" fill="#E2E2E8"/>
  <rect x="76" y="56" width="400" height="36" rx="6" fill="#1A1B25"/>
  <circle cx="92" cy="74" r="8" fill="#5E6AD2" opacity="0.5"/>
  <rect x="108" y="68" width="200" height="6" rx="3" fill="#8B8D9E"/>
  <rect x="108" y="80" width="120" height="4" rx="2" fill="#3B3D54"/>
  <rect x="76" y="100" width="400" height="36" rx="6" fill="#1A1B25"/>
  <circle cx="92" cy="118" r="8" fill="#F2994A" opacity="0.5"/>
  <rect x="108" y="112" width="180" height="6" rx="3" fill="#8B8D9E"/>
  <rect x="108" y="124" width="100" height="4" rx="2" fill="#3B3D54"/>
  <rect x="76" y="144" width="400" height="36" rx="6" fill="#1A1B25"/>
  <circle cx="92" cy="162" r="8" fill="#27AE60" opacity="0.5"/>
  <rect x="108" y="156" width="240" height="6" rx="3" fill="#8B8D9E"/>
  <rect x="108" y="168" width="80" height="4" rx="2" fill="#3B3D54"/>
  <rect x="76" y="188" width="400" height="36" rx="6" fill="#1A1B25"/>
  <circle cx="92" cy="206" r="8" fill="#5E6AD2"/>
  <rect x="108" y="200" width="160" height="6" rx="3" fill="#E2E2E8"/>
  <rect x="108" y="212" width="140" height="4" rx="2" fill="#3B3D54"/>
  <rect x="76" y="232" width="400" height="36" rx="6" fill="#1A1B25"/>
  <circle cx="92" cy="250" r="8" fill="#EB5757" opacity="0.5"/>
  <rect x="108" y="244" width="220" height="6" rx="3" fill="#8B8D9E"/>
  <rect x="108" y="256" width="90" height="4" rx="2" fill="#3B3D54"/>
</svg>
