<svg xmlns="http://www.w3.org/2000/svg" width="500" height="360" viewBox="0 0 500 360">
  <rect width="500" height="360" rx="12" fill="#FAFBFC"/>
  <rect width="500" height="360" rx="12" fill="none" stroke="#E5E7EB" stroke-width="1"/>
  <rect x="150" y="60" width="200" height="40" rx="20" fill="#F3F4F6" stroke="#D1D5DB" stroke-width="1"/>
  <text x="250" y="86" text-anchor="middle" fill="#9CA3AF" font-family="system-ui" font-size="14">Ask anything...</text>
  <text x="250" y="35" text-anchor="middle" fill="#1F2937" font-family="system-ui" font-size="22" font-weight="700">Perplexity</text>
  <rect x="60" y="130" width="380" height="1" fill="#E5E7EB"/>
  <circle cx="80" cy="160" r="12" fill="#20B2AA" opacity="0.2"/>
  <text x="80" y="164" text-anchor="middle" fill="#20B2AA" font-family="system-ui" font-size="12" font-weight="700">P</text>
  <rect x="104" y="150" width="300" height="8" rx="4" fill="#374151"/>
  <rect x="104" y="168" width="240" height="6" rx="3" fill="#9CA3AF"/>
  <rect x="60" y="200" width="380" height="80" rx="8" fill="#F9FAFB" stroke="#E5E7EB" stroke-width="1"/>
  <rect x="80" y="216" width="200" height="6" rx="3" fill="#6B7280"/>
  <rect x="80" y="232" width="320" height="6" rx="3" fill="#9CA3AF"/>
  <rect x="80" y="248" width="280" height="6" rx="3" fill="#9CA3AF"/>
  <rect x="80" y="264" width="180" height="6" rx="3" fill="#9CA3AF"/>
  <rect x="60" y="300" width="120" height="32" rx="16" fill="#20B2AA" opacity="0.1"/>
  <text x="120" y="320" text-anchor="middle" fill="#20B2AA" font-family="system-ui" font-size="12" font-weight="500">Follow up</text>
  <rect x="200" y="300" width="100" height="32" rx="16" fill="#F3F4F6"/>
  <text x="250" y="320" text-anchor="middle" fill="#6B7280" font-family="system-ui" font-size="12" font-weight="500">Share</text>
</svg>
