<svg xmlns="http://www.w3.org/2000/svg" width="506" height="393" viewBox="7 7 506 393">
  <!-- iPad body -->
  <rect x="10" y="10" width="500" height="380" rx="20" fill="#1D1D1F"/>
  <rect x="22" y="22" width="476" height="356" rx="4" fill="#1B3A4B"/>
  <!-- Camera -->
  <circle cx="260" cy="16" r="3" fill="#333"/>
  <!-- Content: Wind turbines landscape -->
  <rect x="22" y="22" width="476" height="200" fill="#5B8C9E"/>
  <rect x="22" y="180" width="476" height="42" fill="#7CAD6B" opacity="0.7"/>
  <!-- Wind turbines -->
  <rect x="120" y="80" width="4" height="100" fill="#DDD"/>
  <line x1="122" y1="80" x2="90" y2="95" stroke="#DDD" stroke-width="2"/>
  <line x1="122" y1="80" x2="140" y2="60" stroke="#DDD" stroke-width="2"/>
  <line x1="122" y1="80" x2="140" y2="105" stroke="#DDD" stroke-width="2"/>
  <rect x="240" y="60" width="4" height="120" fill="#DDD"/>
  <line x1="242" y1="60" x2="210" y2="75" stroke="#DDD" stroke-width="2"/>
  <line x1="242" y1="60" x2="260" y2="40" stroke="#DDD" stroke-width="2"/>
  <line x1="242" y1="60" x2="260" y2="85" stroke="#DDD" stroke-width="2"/>
  <rect x="380" y="70" width="4" height="110" fill="#DDD"/>
  <line x1="382" y1="70" x2="350" y2="85" stroke="#DDD" stroke-width="2"/>
  <line x1="382" y1="70" x2="400" y2="50" stroke="#DDD" stroke-width="2"/>
  <line x1="382" y1="70" x2="400" y2="95" stroke="#DDD" stroke-width="2"/>
  <!-- Chapter header -->
  <text x="260" y="250" text-anchor="middle" fill="#8BB8C8" font-family="system-ui" font-size="10" letter-spacing="2">CHAPTER 4</text>
  <text x="260" y="278" text-anchor="middle" fill="#FFFFFF" font-family="Georgia, serif" font-size="16" font-weight="700">HARVESTING THE WIND</text>
  <!-- Text content -->
  <rect x="100" y="300" width="320" height="6" rx="3" fill="#5B8C9E" opacity="0.5"/>
  <rect x="120" y="316" width="280" height="6" rx="3" fill="#5B8C9E" opacity="0.5"/>
  <rect x="110" y="332" width="300" height="6" rx="3" fill="#5B8C9E" opacity="0.5"/>
  <rect x="130" y="348" width="260" height="6" rx="3" fill="#5B8C9E" opacity="0.5"/>
  <!-- Home button -->
  <circle cx="260" cy="395" r="1.5" fill="#444"/>
</svg>
