<svg xmlns="http://www.w3.org/2000/svg" width="500" height="340" viewBox="0 0 500 340">
  <rect width="500" height="340" rx="12" fill="#191414"/>
  <rect x="0" y="300" width="500" height="40" fill="#282828"/>
  <rect x="20" y="20" width="120" height="120" rx="4" fill="#1DB954"/>
  <circle cx="80" cy="80" r="30" fill="#191414"/>
  <path d="M70 65 L70 95 L95 80 Z" fill="#1DB954"/>
  <rect x="160" y="30" width="200" height="12" rx="6" fill="#B3B3B3"/>
  <rect x="160" y="54" width="120" height="10" rx="5" fill="#535353"/>
  <rect x="160" y="80" width="300" height="8" rx="4" fill="#535353"/>
  <rect x="160" y="100" width="300" height="8" rx="4" fill="#535353"/>
  <rect x="160" y="120" width="240" height="8" rx="4" fill="#535353"/>
  <rect x="20" y="170" width="140" height="10" rx="5" fill="#B3B3B3"/>
  <rect x="20" y="195" width="100" height="100" rx="4" fill="#E17055"/>
  <rect x="135" y="195" width="100" height="100" rx="4" fill="#6C5CE7"/>
  <rect x="250" y="195" width="100" height="100" rx="4" fill="#00B894"/>
  <rect x="365" y="195" width="100" height="100" rx="4" fill="#FDCB6E"/>
  <rect x="60" y="312" width="380" height="4" rx="2" fill="#535353"/>
  <rect x="60" y="312" width="140" height="4" rx="2" fill="#1DB954"/>
  <circle cx="200" cy="314" r="6" fill="#fff"/>
</svg>
