<svg xmlns="http://www.w3.org/2000/svg" width="526" height="216" viewBox="-3 28 526 216">
  <path d="M40 130 Q40 50 160 40 Q260 32 260 32 Q260 32 360 40 Q480 50 480 130 Q480 200 380 220 Q260 240 260 240 Q260 240 140 220 Q40 200 40 130Z" fill="#E8E8ED" stroke="#D2D2D7" stroke-width="1"/>
  <path d="M60 130 Q60 70 160 60 Q260 52 260 52 Q260 52 360 60 Q460 70 460 130 Q460 185 370 200 Q260 218 260 218 Q260 218 150 200 Q60 185 60 130Z" fill="#1D1D1F"/>
  <rect x="100" y="85" width="140" height="90" rx="20" fill="#2D2D2F"/>
  <rect x="280" y="85" width="140" height="90" rx="20" fill="#2D2D2F"/>
  <circle cx="170" cy="130" r="28" fill="#1A1A1C" stroke="#3A3A3C" stroke-width="1"/>
  <circle cx="350" cy="130" r="28" fill="#1A1A1C" stroke="#3A3A3C" stroke-width="1"/>
  <circle cx="170" cy="130" r="12" fill="#0A84FF" opacity="0.6"/>
  <circle cx="350" cy="130" r="12" fill="#0A84FF" opacity="0.6"/>
  <rect x="0" y="120" width="40" height="20" rx="10" fill="#D2D2D7"/>
  <rect x="480" y="120" width="40" height="20" rx="10" fill="#D2D2D7"/>
</svg>
